<svg width="76" height="58" viewBox="0 0 76 58" fill="none" xmlns="http://www.w3.org/2000/svg">
<path d="M51.216 23.688L41.304 48H37.464L27.552 23.688H31.032C31.384 23.688 31.672 23.776 31.896 23.952C32.12 24.128 32.272 24.336 32.352 24.576L38.52 40.224C38.712 40.816 38.88 41.392 39.024 41.952C39.168 42.512 39.304 43.072 39.432 43.632C39.56 43.072 39.696 42.512 39.84 41.952C39.984 41.392 40.16 40.816 40.368 40.224L46.608 24.576C46.704 24.32 46.864 24.112 47.088 23.952C47.312 23.776 47.576 23.688 47.88 23.688H51.216ZM67.7944 37.056C65.8264 37.12 64.1464 37.28 62.7544 37.536C61.3784 37.776 60.2504 38.096 59.3704 38.496C58.5064 38.896 57.8744 39.368 57.4744 39.912C57.0904 40.456 56.8984 41.064 56.8984 41.736C56.8984 42.376 57.0024 42.928 57.2104 43.392C57.4184 43.856 57.6984 44.24 58.0504 44.544C58.4184 44.832 58.8424 45.048 59.3224 45.192C59.8184 45.32 60.3464 45.384 60.9064 45.384C61.6584 45.384 62.3464 45.312 62.9704 45.168C63.5944 45.008 64.1784 44.784 64.7224 44.496C65.2824 44.208 65.8104 43.864 66.3064 43.464C66.8184 43.064 67.3144 42.608 67.7944 42.096V37.056ZM53.9944 27.12C55.3384 25.824 56.7864 24.856 58.3384 24.216C59.8904 23.576 61.6104 23.256 63.4984 23.256C64.8584 23.256 66.0664 23.48 67.1224 23.928C68.1784 24.376 69.0664 25 69.7864 25.8C70.5064 26.6 71.0504 27.568 71.4184 28.704C71.7864 29.84 71.9704 31.088 71.9704 32.448V48H70.0744C69.6584 48 69.3384 47.936 69.1144 47.808C68.8904 47.664 68.7144 47.392 68.5864 46.992L68.1064 44.688C67.4664 45.28 66.8424 45.808 66.2344 46.272C65.6264 46.72 64.9864 47.104 64.3144 47.424C63.6424 47.728 62.9224 47.96 62.1544 48.12C61.4024 48.296 60.5624 48.384 59.6344 48.384C58.6904 48.384 57.8024 48.256 56.9704 48C56.1384 47.728 55.4104 47.328 54.7864 46.8C54.1784 46.272 53.6904 45.608 53.3224 44.808C52.9704 43.992 52.7944 43.032 52.7944 41.928C52.7944 40.968 53.0584 40.048 53.5864 39.168C54.1144 38.272 54.9704 37.48 56.1544 36.792C57.3384 36.104 58.8824 35.544 60.7864 35.112C62.6904 34.664 65.0264 34.408 67.7944 34.344V32.448C67.7944 30.56 67.3864 29.136 66.5704 28.176C65.7544 27.2 64.5624 26.712 62.9944 26.712C61.9384 26.712 61.0504 26.848 60.3304 27.12C59.6264 27.376 59.0104 27.672 58.4824 28.008C57.9704 28.328 57.5224 28.624 57.1384 28.896C56.7704 29.152 56.4024 29.28 56.0344 29.28C55.7464 29.28 55.4984 29.208 55.2904 29.064C55.0824 28.904 54.9064 28.712 54.7624 28.488L53.9944 27.12Z" fill="url(#paint0_linear_334_49)"/>
<rect y="23" width="13" height="13" fill="#DF3163"/>
<rect y="36" width="13" height="13" fill="#191970"/>
<path d="M13 23V23C20.1797 23 26 28.8203 26 36V36H13V23Z" fill="#641975"/>
<path d="M13 36H26V36C26 43.1797 20.1797 49 13 49V49V36Z" fill="#3964C3"/>
<defs>
<linearGradient id="paint0_linear_334_49" x1="51.5" y1="0" x2="51.5" y2="58" gradientUnits="userSpaceOnUse">
<stop stop-color="#DF3163"/>
<stop offset="1" stop-color="#191970"/>
</linearGradient>
</defs>
</svg>
