<svg width="151" height="151" viewBox="0 0 151 151" fill="none" xmlns="http://www.w3.org/2000/svg">
<path d="M141.242 76.5928C141.242 71.7178 140.805 67.0303 139.992 62.5303H75.2422V89.124H112.242C110.648 97.7178 105.805 104.999 98.5234 109.874V127.124H120.742C133.742 115.155 141.242 97.5303 141.242 76.5928Z" fill="#4285F4"/>
<path d="M75.2422 143.78C93.8047 143.78 109.367 137.624 120.742 127.124L98.5234 109.874C92.3672 113.999 84.4922 116.437 75.2422 116.437C57.3359 116.437 42.1797 104.343 36.7734 88.0928H13.8047V105.905C25.1172 128.374 48.3672 143.78 75.2422 143.78Z" fill="#34A853"/>
<path d="M36.7734 88.0928C35.3984 83.9678 34.6172 79.5615 34.6172 75.0303C34.6172 70.499 35.3984 66.0928 36.7734 61.9678V44.1553H13.8047C8.99219 53.7356 6.48795 64.3091 6.49219 75.0303C6.49219 86.124 9.14844 96.624 13.8047 105.905L36.7734 88.0928Z" fill="#FBBC05"/>
<path d="M75.2422 33.624C85.3359 33.624 94.3984 37.0928 101.523 43.9053L121.242 24.1865C109.336 13.0928 93.7734 6.28027 75.2422 6.28027C48.3672 6.28027 25.1172 21.6865 13.8047 44.1553L36.7734 61.9678C42.1797 45.7178 57.3359 33.624 75.2422 33.624Z" fill="#EA4335"/>
</svg>
